<?xml version="1.0" encoding="utf-8" standalone="no"?>
<!DOCTYPE svg PUBLIC "-//W3C//DTD SVG 1.1//EN"
  "http://www.w3.org/Graphics/SVG/1.1/DTD/svg11.dtd">
<svg xmlns:xlink="http://www.w3.org/1999/xlink" width="332.64pt" height="332.64pt" viewBox="0 0 332.64 332.64" xmlns="http://www.w3.org/2000/svg" version="1.1">
 <metadata>
  <rdf:RDF xmlns:dc="http://purl.org/dc/elements/1.1/" xmlns:cc="http://creativecommons.org/ns#" xmlns:rdf="http://www.w3.org/1999/02/22-rdf-syntax-ns#">
   <cc:Work>
    <dc:type rdf:resource="http://purl.org/dc/dcmitype/StillImage"/>
    <dc:date>2025-10-19T12:38:25.284756</dc:date>
    <dc:format>image/svg+xml</dc:format>
    <dc:creator>
     <cc:Agent>
      <dc:title>Matplotlib v3.10.7, https://matplotlib.org/</dc:title>
     </cc:Agent>
    </dc:creator>
   </cc:Work>
  </rdf:RDF>
 </metadata>
 <defs>
  <style type="text/css">*{stroke-linejoin: round; stroke-linecap: butt}</style>
 </defs>
 <g id="figure_1">
  <g id="patch_1">
   <path d="M 0 332.64 
L 332.64 332.64 
L 332.64 0 
L 0 0 
z
" style="fill: #ffffff"/>
  </g>
  <g id="axes_1">
   <g id="QuadContourSet_1">
    <path d="M 119.174173 -0 
L 119.174173 5.238425 
L 121.793386 7.857638 
L 121.793386 26.192126 
L 124.412598 28.811339 
L 124.412598 34.049764 
L 127.031811 36.668976 
L 127.031811 44.526614 
L 129.651024 47.145827 
L 129.651024 60.24189 
L 132.270236 62.861102 
L 132.270236 70.71874 
L 134.889449 73.337953 
L 134.889449 78.576378 
L 137.508661 81.195591 
L 137.508661 102.149291 
L 140.127874 104.768504 
L 140.127874 112.626142 
L 142.747087 115.245354 
L 142.747087 128.341417 
L 145.366299 130.96063 
L 145.366299 136.199055 
L 147.985512 138.818268 
L 147.985512 144.056693 
L 150.604724 146.675906 
L 150.604724 154.533543 
L 153.223937 157.152756 
L 153.223937 175.487244 
L 155.84315 178.106457 
L 155.84315 185.964094 
L 158.462362 188.583307 
L 158.462362 214.775433 
L 161.081575 217.394646 
L 161.081575 220.013858 
L 163.700787 222.633071 
L 163.700787 251.444409 
L 166.32 254.063622 
L 166.32 267.159685 
L 168.939213 269.778898 
L 168.939213 277.636535 
L 171.558425 280.255748 
L 171.558425 282.874961 
L 172.868031 284.184567 
L 174.177638 282.874961 
L 174.177638 277.636535 
L 171.558425 275.017323 
L 171.558425 267.159685 
L 168.939213 264.540472 
L 168.939213 251.444409 
L 166.32 248.825197 
L 166.32 220.013858 
L 163.700787 217.394646 
L 163.700787 214.775433 
L 161.081575 212.15622 
L 161.081575 185.964094 
L 158.462362 183.344882 
L 158.462362 175.487244 
L 155.84315 172.868031 
L 155.84315 154.533543 
L 153.223937 151.914331 
L 153.223937 144.056693 
L 150.604724 141.43748 
L 150.604724 136.199055 
L 147.985512 133.579843 
L 147.985512 128.341417 
L 145.366299 125.722205 
L 145.366299 112.626142 
L 142.747087 110.006929 
L 142.747087 102.149291 
L 140.127874 99.530079 
L 140.127874 78.576378 
L 137.508661 75.957165 
L 137.508661 70.71874 
L 134.889449 68.099528 
L 134.889449 60.24189 
L 132.270236 57.622677 
L 132.270236 44.526614 
L 129.651024 41.907402 
L 129.651024 34.049764 
L 127.031811 31.430551 
L 127.031811 26.192126 
L 124.412598 23.572913 
L 124.412598 5.238425 
L 121.793386 2.619213 
L 121.793386 -0 
L 121.793386 -0 
" clip-path="url(#p31f49199ac)" style="fill: none; stroke: #440154; stroke-width: 1.5"/>
   </g>
  </g>
 </g>
 <defs>
  <clipPath id="p31f49199ac">
   <rect x="0" y="-0" width="332.64" height="332.64"/>
  </clipPath>
 </defs>
</svg>
