<?xml version="1.0" encoding="utf-8" standalone="no"?>
<!DOCTYPE svg PUBLIC "-//W3C//DTD SVG 1.1//EN"
  "http://www.w3.org/Graphics/SVG/1.1/DTD/svg11.dtd">
<svg xmlns:xlink="http://www.w3.org/1999/xlink" width="332.64pt" height="332.64pt" viewBox="0 0 332.64 332.64" xmlns="http://www.w3.org/2000/svg" version="1.1">
 <metadata>
  <rdf:RDF xmlns:dc="http://purl.org/dc/elements/1.1/" xmlns:cc="http://creativecommons.org/ns#" xmlns:rdf="http://www.w3.org/1999/02/22-rdf-syntax-ns#">
   <cc:Work>
    <dc:type rdf:resource="http://purl.org/dc/dcmitype/StillImage"/>
    <dc:date>2025-10-19T03:18:46.891287</dc:date>
    <dc:format>image/svg+xml</dc:format>
    <dc:creator>
     <cc:Agent>
      <dc:title>Matplotlib v3.10.7, https://matplotlib.org/</dc:title>
     </cc:Agent>
    </dc:creator>
   </cc:Work>
  </rdf:RDF>
 </metadata>
 <defs>
  <style type="text/css">*{stroke-linejoin: round; stroke-linecap: butt}</style>
 </defs>
 <g id="figure_1">
  <g id="patch_1">
   <path d="M 0 332.64 
L 332.64 332.64 
L 332.64 0 
L 0 0 
z
" style="fill: #ffffff"/>
  </g>
  <g id="axes_1">
   <g id="QuadContourSet_1">
    <path d="M 61.551496 332.64 
L 64.170709 330.020787 
L 61.551496 327.401575 
L 64.170709 324.782362 
L 61.551496 322.16315 
L 64.170709 319.543937 
L 61.551496 316.924724 
L 64.170709 314.305512 
L 61.551496 311.686299 
L 64.170709 309.067087 
L 61.551496 306.447874 
L 64.170709 303.828661 
L 61.551496 301.209449 
L 64.170709 298.590236 
L 61.551496 295.971024 
L 64.170709 293.351811 
L 61.551496 290.732598 
L 64.170709 288.113386 
L 61.551496 285.494173 
L 64.170709 282.874961 
L 61.551496 280.255748 
L 64.170709 277.636535 
L 61.551496 275.017323 
L 64.170709 272.39811 
L 61.551496 269.778898 
L 64.170709 267.159685 
L 61.551496 264.540472 
L 64.170709 261.92126 
L 61.551496 259.302047 
L 64.170709 256.682835 
L 61.551496 254.063622 
L 64.170709 251.444409 
L 61.551496 248.825197 
L 64.170709 246.205984 
L 61.551496 243.586772 
L 64.170709 240.967559 
L 61.551496 238.348346 
L 64.170709 235.729134 
L 61.551496 233.109921 
L 64.170709 230.490709 
L 61.551496 227.871496 
L 64.170709 225.252283 
L 61.551496 222.633071 
L 64.170709 220.013858 
L 61.551496 217.394646 
L 64.170709 214.775433 
L 61.551496 212.15622 
L 64.170709 209.537008 
L 61.551496 206.917795 
L 64.170709 204.298583 
L 61.551496 201.67937 
L 64.170709 199.060157 
L 61.551496 196.440945 
L 64.170709 193.821732 
L 61.551496 191.20252 
L 64.170709 188.583307 
L 61.551496 185.964094 
L 64.170709 183.344882 
L 61.551496 180.725669 
L 64.170709 178.106457 
L 61.551496 175.487244 
L 64.170709 172.868031 
L 61.551496 170.248819 
L 64.170709 167.629606 
L 61.551496 165.010394 
L 64.170709 162.391181 
L 61.551496 159.771969 
L 64.170709 157.152756 
L 61.551496 154.533543 
L 64.170709 151.914331 
L 61.551496 149.295118 
L 64.170709 146.675906 
L 61.551496 144.056693 
L 64.170709 141.43748 
L 61.551496 138.818268 
L 64.170709 136.199055 
L 61.551496 133.579843 
L 64.170709 130.96063 
L 61.551496 128.341417 
L 64.170709 125.722205 
L 61.551496 123.102992 
L 64.170709 120.48378 
L 61.551496 117.864567 
L 64.170709 115.245354 
L 61.551496 112.626142 
L 64.170709 110.006929 
L 61.551496 107.387717 
L 64.170709 104.768504 
L 61.551496 102.149291 
L 64.170709 99.530079 
L 61.551496 96.910866 
L 64.170709 94.291654 
L 61.551496 91.672441 
L 64.170709 89.053228 
L 61.551496 86.434016 
L 64.170709 83.814803 
L 61.551496 81.195591 
L 64.170709 78.576378 
L 61.551496 75.957165 
L 64.170709 73.337953 
L 61.551496 70.71874 
L 64.170709 68.099528 
L 61.551496 65.480315 
L 64.170709 62.861102 
L 61.551496 60.24189 
L 64.170709 57.622677 
L 61.551496 55.003465 
L 64.170709 52.384252 
L 61.551496 49.765039 
L 64.170709 47.145827 
L 61.551496 44.526614 
L 64.170709 41.907402 
L 61.551496 39.288189 
L 64.170709 36.668976 
L 61.551496 34.049764 
L 64.170709 31.430551 
L 61.551496 28.811339 
L 64.170709 26.192126 
L 61.551496 23.572913 
L 64.170709 20.953701 
L 61.551496 18.334488 
L 64.170709 15.715276 
L 61.551496 13.096063 
L 64.170709 10.47685 
L 61.551496 7.857638 
L 64.170709 5.238425 
L 61.551496 2.619213 
L 64.170709 -0 
M 58.932283 -0 
L 58.932283 332.64 
L 58.932283 332.64 
" clip-path="url(#p756ed21482)" style="fill: none; stroke: #440154; stroke-width: 1.5"/>
   </g>
  </g>
 </g>
 <defs>
  <clipPath id="p756ed21482">
   <rect x="0" y="-0" width="332.64" height="332.64"/>
  </clipPath>
 </defs>
</svg>
