<?xml version="1.0" encoding="utf-8" standalone="no"?>
<!DOCTYPE svg PUBLIC "-//W3C//DTD SVG 1.1//EN"
  "http://www.w3.org/Graphics/SVG/1.1/DTD/svg11.dtd">
<svg xmlns:xlink="http://www.w3.org/1999/xlink" width="332.64pt" height="332.64pt" viewBox="0 0 332.64 332.64" xmlns="http://www.w3.org/2000/svg" version="1.1">
 <metadata>
  <rdf:RDF xmlns:dc="http://purl.org/dc/elements/1.1/" xmlns:cc="http://creativecommons.org/ns#" xmlns:rdf="http://www.w3.org/1999/02/22-rdf-syntax-ns#">
   <cc:Work>
    <dc:type rdf:resource="http://purl.org/dc/dcmitype/StillImage"/>
    <dc:date>2025-10-20T03:33:41.448456</dc:date>
    <dc:format>image/svg+xml</dc:format>
    <dc:creator>
     <cc:Agent>
      <dc:title>Matplotlib v3.10.7, https://matplotlib.org/</dc:title>
     </cc:Agent>
    </dc:creator>
   </cc:Work>
  </rdf:RDF>
 </metadata>
 <defs>
  <style type="text/css">*{stroke-linejoin: round; stroke-linecap: butt}</style>
 </defs>
 <g id="figure_1">
  <g id="patch_1">
   <path d="M 0 332.64 
L 332.64 332.64 
L 332.64 0 
L 0 0 
z
" style="fill: #ffffff"/>
  </g>
  <g id="axes_1">
   <g id="QuadContourSet_1">
    <path d="M 24.88252 332.64 
L 24.88252 125.722205 
L 23.572913 124.412598 
L 22.263307 125.722205 
L 22.263307 332.64 
L 22.263307 332.64 
" clip-path="url(#p3bef43202b)" style="fill: none; stroke: #440154; stroke-width: 1.5"/>
   </g>
   <g id="text_1">
    <!-- Ω-2-GR-v1 | K=[[-1, 1, -1], [-1, 0, -1], [0, 1, -1]] | ton=-1 toff=-2 -->
    <g transform="translate(6.6528 12.002331) scale(0.07 -0.07)">
     <defs>
      <path id="DejaVuSans-3a9" d="M 4647 556 
L 4647 0 
L 2772 0 
L 2772 556 
Q 3325 859 3634 1378 
Q 3944 1897 3944 2528 
Q 3944 3278 3531 3731 
Q 3119 4184 2444 4184 
Q 1769 4184 1355 3729 
Q 941 3275 941 2528 
Q 941 1897 1250 1378 
Q 1563 859 2119 556 
L 2119 0 
L 244 0 
L 244 556 
L 1241 556 
Q 747 991 519 1456 
Q 294 1922 294 2497 
Q 294 3491 894 4106 
Q 1491 4722 2444 4722 
Q 3391 4722 3994 4106 
Q 4594 3494 4594 2528 
Q 4594 1922 4372 1459 
Q 4150 997 3647 556 
L 4647 556 
z
" transform="scale(0.015625)"/>
      <path id="DejaVuSans-2d" d="M 313 2009 
L 1997 2009 
L 1997 1497 
L 313 1497 
L 313 2009 
z
" transform="scale(0.015625)"/>
      <path id="DejaVuSans-32" d="M 1228 531 
L 3431 531 
L 3431 0 
L 469 0 
L 469 531 
Q 828 903 1448 1529 
Q 2069 2156 2228 2338 
Q 2531 2678 2651 2914 
Q 2772 3150 2772 3378 
Q 2772 3750 2511 3984 
Q 2250 4219 1831 4219 
Q 1534 4219 1204 4116 
Q 875 4013 500 3803 
L 500 4441 
Q 881 4594 1212 4672 
Q 1544 4750 1819 4750 
Q 2544 4750 2975 4387 
Q 3406 4025 3406 3419 
Q 3406 3131 3298 2873 
Q 3191 2616 2906 2266 
Q 2828 2175 2409 1742 
Q 1991 1309 1228 531 
z
" transform="scale(0.015625)"/>
      <path id="DejaVuSans-47" d="M 3809 666 
L 3809 1919 
L 2778 1919 
L 2778 2438 
L 4434 2438 
L 4434 434 
Q 4069 175 3628 42 
Q 3188 -91 2688 -91 
Q 1594 -91 976 548 
Q 359 1188 359 2328 
Q 359 3472 976 4111 
Q 1594 4750 2688 4750 
Q 3144 4750 3555 4637 
Q 3966 4525 4313 4306 
L 4313 3634 
Q 3963 3931 3569 4081 
Q 3175 4231 2741 4231 
Q 1884 4231 1454 3753 
Q 1025 3275 1025 2328 
Q 1025 1384 1454 906 
Q 1884 428 2741 428 
Q 3075 428 3337 486 
Q 3600 544 3809 666 
z
" transform="scale(0.015625)"/>
      <path id="DejaVuSans-52" d="M 2841 2188 
Q 3044 2119 3236 1894 
Q 3428 1669 3622 1275 
L 4263 0 
L 3584 0 
L 2988 1197 
Q 2756 1666 2539 1819 
Q 2322 1972 1947 1972 
L 1259 1972 
L 1259 0 
L 628 0 
L 628 4666 
L 2053 4666 
Q 2853 4666 3247 4331 
Q 3641 3997 3641 3322 
Q 3641 2881 3436 2590 
Q 3231 2300 2841 2188 
z
M 1259 4147 
L 1259 2491 
L 2053 2491 
Q 2509 2491 2742 2702 
Q 2975 2913 2975 3322 
Q 2975 3731 2742 3939 
Q 2509 4147 2053 4147 
L 1259 4147 
z
" transform="scale(0.015625)"/>
      <path id="DejaVuSans-76" d="M 191 3500 
L 800 3500 
L 1894 563 
L 2988 3500 
L 3597 3500 
L 2284 0 
L 1503 0 
L 191 3500 
z
" transform="scale(0.015625)"/>
      <path id="DejaVuSans-31" d="M 794 531 
L 1825 531 
L 1825 4091 
L 703 3866 
L 703 4441 
L 1819 4666 
L 2450 4666 
L 2450 531 
L 3481 531 
L 3481 0 
L 794 0 
L 794 531 
z
" transform="scale(0.015625)"/>
      <path id="DejaVuSans-20" transform="scale(0.015625)"/>
      <path id="DejaVuSans-7c" d="M 1344 4891 
L 1344 -1509 
L 813 -1509 
L 813 4891 
L 1344 4891 
z
" transform="scale(0.015625)"/>
      <path id="DejaVuSans-4b" d="M 628 4666 
L 1259 4666 
L 1259 2694 
L 3353 4666 
L 4166 4666 
L 1850 2491 
L 4331 0 
L 3500 0 
L 1259 2247 
L 1259 0 
L 628 0 
L 628 4666 
z
" transform="scale(0.015625)"/>
      <path id="DejaVuSans-3d" d="M 678 2906 
L 4684 2906 
L 4684 2381 
L 678 2381 
L 678 2906 
z
M 678 1631 
L 4684 1631 
L 4684 1100 
L 678 1100 
L 678 1631 
z
" transform="scale(0.015625)"/>
      <path id="DejaVuSans-5b" d="M 550 4863 
L 1875 4863 
L 1875 4416 
L 1125 4416 
L 1125 -397 
L 1875 -397 
L 1875 -844 
L 550 -844 
L 550 4863 
z
" transform="scale(0.015625)"/>
      <path id="DejaVuSans-2c" d="M 750 794 
L 1409 794 
L 1409 256 
L 897 -744 
L 494 -744 
L 750 256 
L 750 794 
z
" transform="scale(0.015625)"/>
      <path id="DejaVuSans-5d" d="M 1947 4863 
L 1947 -844 
L 622 -844 
L 622 -397 
L 1369 -397 
L 1369 4416 
L 622 4416 
L 622 4863 
L 1947 4863 
z
" transform="scale(0.015625)"/>
      <path id="DejaVuSans-30" d="M 2034 4250 
Q 1547 4250 1301 3770 
Q 1056 3291 1056 2328 
Q 1056 1369 1301 889 
Q 1547 409 2034 409 
Q 2525 409 2770 889 
Q 3016 1369 3016 2328 
Q 3016 3291 2770 3770 
Q 2525 4250 2034 4250 
z
M 2034 4750 
Q 2819 4750 3233 4129 
Q 3647 3509 3647 2328 
Q 3647 1150 3233 529 
Q 2819 -91 2034 -91 
Q 1250 -91 836 529 
Q 422 1150 422 2328 
Q 422 3509 836 4129 
Q 1250 4750 2034 4750 
z
" transform="scale(0.015625)"/>
      <path id="DejaVuSans-74" d="M 1172 4494 
L 1172 3500 
L 2356 3500 
L 2356 3053 
L 1172 3053 
L 1172 1153 
Q 1172 725 1289 603 
Q 1406 481 1766 481 
L 2356 481 
L 2356 0 
L 1766 0 
Q 1100 0 847 248 
Q 594 497 594 1153 
L 594 3053 
L 172 3053 
L 172 3500 
L 594 3500 
L 594 4494 
L 1172 4494 
z
" transform="scale(0.015625)"/>
      <path id="DejaVuSans-6f" d="M 1959 3097 
Q 1497 3097 1228 2736 
Q 959 2375 959 1747 
Q 959 1119 1226 758 
Q 1494 397 1959 397 
Q 2419 397 2687 759 
Q 2956 1122 2956 1747 
Q 2956 2369 2687 2733 
Q 2419 3097 1959 3097 
z
M 1959 3584 
Q 2709 3584 3137 3096 
Q 3566 2609 3566 1747 
Q 3566 888 3137 398 
Q 2709 -91 1959 -91 
Q 1206 -91 779 398 
Q 353 888 353 1747 
Q 353 2609 779 3096 
Q 1206 3584 1959 3584 
z
" transform="scale(0.015625)"/>
      <path id="DejaVuSans-6e" d="M 3513 2113 
L 3513 0 
L 2938 0 
L 2938 2094 
Q 2938 2591 2744 2837 
Q 2550 3084 2163 3084 
Q 1697 3084 1428 2787 
Q 1159 2491 1159 1978 
L 1159 0 
L 581 0 
L 581 3500 
L 1159 3500 
L 1159 2956 
Q 1366 3272 1645 3428 
Q 1925 3584 2291 3584 
Q 2894 3584 3203 3211 
Q 3513 2838 3513 2113 
z
" transform="scale(0.015625)"/>
      <path id="DejaVuSans-66" d="M 2375 4863 
L 2375 4384 
L 1825 4384 
Q 1516 4384 1395 4259 
Q 1275 4134 1275 3809 
L 1275 3500 
L 2222 3500 
L 2222 3053 
L 1275 3053 
L 1275 0 
L 697 0 
L 697 3053 
L 147 3053 
L 147 3500 
L 697 3500 
L 697 3744 
Q 697 4328 969 4595 
Q 1241 4863 1831 4863 
L 2375 4863 
z
" transform="scale(0.015625)"/>
     </defs>
     <use xlink:href="#DejaVuSans-3a9"/>
     <use xlink:href="#DejaVuSans-2d" transform="translate(76.416016 0)"/>
     <use xlink:href="#DejaVuSans-32" transform="translate(112.5 0)"/>
     <use xlink:href="#DejaVuSans-2d" transform="translate(176.123047 0)"/>
     <use xlink:href="#DejaVuSans-47" transform="translate(215.832031 0)"/>
     <use xlink:href="#DejaVuSans-52" transform="translate(293.322266 0)"/>
     <use xlink:href="#DejaVuSans-2d" transform="translate(358.804688 0)"/>
     <use xlink:href="#DejaVuSans-76" transform="translate(392.263672 0)"/>
     <use xlink:href="#DejaVuSans-31" transform="translate(451.443359 0)"/>
     <use xlink:href="#DejaVuSans-20" transform="translate(515.066406 0)"/>
     <use xlink:href="#DejaVuSans-7c" transform="translate(546.853516 0)"/>
     <use xlink:href="#DejaVuSans-20" transform="translate(580.544922 0)"/>
     <use xlink:href="#DejaVuSans-4b" transform="translate(612.332031 0)"/>
     <use xlink:href="#DejaVuSans-3d" transform="translate(677.908203 0)"/>
     <use xlink:href="#DejaVuSans-5b" transform="translate(761.697266 0)"/>
     <use xlink:href="#DejaVuSans-5b" transform="translate(800.710938 0)"/>
     <use xlink:href="#DejaVuSans-2d" transform="translate(839.724609 0)"/>
     <use xlink:href="#DejaVuSans-31" transform="translate(875.808594 0)"/>
     <use xlink:href="#DejaVuSans-2c" transform="translate(939.431641 0)"/>
     <use xlink:href="#DejaVuSans-20" transform="translate(971.21875 0)"/>
     <use xlink:href="#DejaVuSans-31" transform="translate(1003.005859 0)"/>
     <use xlink:href="#DejaVuSans-2c" transform="translate(1066.628906 0)"/>
     <use xlink:href="#DejaVuSans-20" transform="translate(1098.416016 0)"/>
     <use xlink:href="#DejaVuSans-2d" transform="translate(1130.203125 0)"/>
     <use xlink:href="#DejaVuSans-31" transform="translate(1166.287109 0)"/>
     <use xlink:href="#DejaVuSans-5d" transform="translate(1229.910156 0)"/>
     <use xlink:href="#DejaVuSans-2c" transform="translate(1268.923828 0)"/>
     <use xlink:href="#DejaVuSans-20" transform="translate(1300.710938 0)"/>
     <use xlink:href="#DejaVuSans-5b" transform="translate(1332.498047 0)"/>
     <use xlink:href="#DejaVuSans-2d" transform="translate(1371.511719 0)"/>
     <use xlink:href="#DejaVuSans-31" transform="translate(1407.595703 0)"/>
     <use xlink:href="#DejaVuSans-2c" transform="translate(1471.21875 0)"/>
     <use xlink:href="#DejaVuSans-20" transform="translate(1503.005859 0)"/>
     <use xlink:href="#DejaVuSans-30" transform="translate(1534.792969 0)"/>
     <use xlink:href="#DejaVuSans-2c" transform="translate(1598.416016 0)"/>
     <use xlink:href="#DejaVuSans-20" transform="translate(1630.203125 0)"/>
     <use xlink:href="#DejaVuSans-2d" transform="translate(1661.990234 0)"/>
     <use xlink:href="#DejaVuSans-31" transform="translate(1698.074219 0)"/>
     <use xlink:href="#DejaVuSans-5d" transform="translate(1761.697266 0)"/>
     <use xlink:href="#DejaVuSans-2c" transform="translate(1800.710938 0)"/>
     <use xlink:href="#DejaVuSans-20" transform="translate(1832.498047 0)"/>
     <use xlink:href="#DejaVuSans-5b" transform="translate(1864.285156 0)"/>
     <use xlink:href="#DejaVuSans-30" transform="translate(1903.298828 0)"/>
     <use xlink:href="#DejaVuSans-2c" transform="translate(1966.921875 0)"/>
     <use xlink:href="#DejaVuSans-20" transform="translate(1998.708984 0)"/>
     <use xlink:href="#DejaVuSans-31" transform="translate(2030.496094 0)"/>
     <use xlink:href="#DejaVuSans-2c" transform="translate(2094.119141 0)"/>
     <use xlink:href="#DejaVuSans-20" transform="translate(2125.90625 0)"/>
     <use xlink:href="#DejaVuSans-2d" transform="translate(2157.693359 0)"/>
     <use xlink:href="#DejaVuSans-31" transform="translate(2193.777344 0)"/>
     <use xlink:href="#DejaVuSans-5d" transform="translate(2257.400391 0)"/>
     <use xlink:href="#DejaVuSans-5d" transform="translate(2296.414062 0)"/>
     <use xlink:href="#DejaVuSans-20" transform="translate(2335.427734 0)"/>
     <use xlink:href="#DejaVuSans-7c" transform="translate(2367.214844 0)"/>
     <use xlink:href="#DejaVuSans-20" transform="translate(2400.90625 0)"/>
     <use xlink:href="#DejaVuSans-74" transform="translate(2432.693359 0)"/>
     <use xlink:href="#DejaVuSans-6f" transform="translate(2471.902344 0)"/>
     <use xlink:href="#DejaVuSans-6e" transform="translate(2533.083984 0)"/>
     <use xlink:href="#DejaVuSans-3d" transform="translate(2596.462891 0)"/>
     <use xlink:href="#DejaVuSans-2d" transform="translate(2680.251953 0)"/>
     <use xlink:href="#DejaVuSans-31" transform="translate(2716.335938 0)"/>
     <use xlink:href="#DejaVuSans-20" transform="translate(2779.958984 0)"/>
     <use xlink:href="#DejaVuSans-74" transform="translate(2811.746094 0)"/>
     <use xlink:href="#DejaVuSans-6f" transform="translate(2850.955078 0)"/>
     <use xlink:href="#DejaVuSans-66" transform="translate(2912.136719 0)"/>
     <use xlink:href="#DejaVuSans-66" transform="translate(2947.341797 0)"/>
     <use xlink:href="#DejaVuSans-3d" transform="translate(2982.546875 0)"/>
     <use xlink:href="#DejaVuSans-2d" transform="translate(3066.335938 0)"/>
     <use xlink:href="#DejaVuSans-32" transform="translate(3102.419922 0)"/>
    </g>
   </g>
  </g>
 </g>
 <defs>
  <clipPath id="p3bef43202b">
   <rect x="0" y="-0" width="332.64" height="332.64"/>
  </clipPath>
 </defs>
</svg>
